<svg id="Capa_1" enable-background="new 0 0 512 512" height="512" viewBox="0 0 512 512" width="512" xmlns="http://www.w3.org/2000/svg"><g><g><path d="m511.994 201.008c-.03-2.425-.979-4.838-2.616-6.629l-153.788-168.09c-1.895-2.07-4.572-3.25-7.378-3.25h-184.424c-2.807 0-5.483 1.18-7.378 3.25l-153.788 168.09c-1.661 1.818-2.622 4.285-2.622 6.749v7.432c0 29.214 21.289 53.534 49.165 58.302v69.217c-12.24 4.174-21.072 15.777-21.072 29.412 0 17.133 13.939 31.072 31.072 31.072s31.072-13.939 31.072-31.072c0-13.635-8.832-25.238-21.072-29.412v-69.217c16.277-2.784 30.308-12.227 39.165-25.43 8.868 13.219 22.922 22.669 39.224 25.44v30.128c-12.24 4.174-21.072 15.777-21.072 29.412 0 17.133 13.939 31.072 31.072 31.072s31.072-13.939 31.072-31.072c0-13.635-8.832-25.238-21.072-29.412v-30.129c16.302-2.771 30.356-12.221 39.224-25.44 4.505 6.717 10.355 12.452 17.153 16.844v159.619h-53.568c-33.672 0-61.066 27.395-61.066 61.066 0 5.522 4.477 10 10 10h273.41c5.523 0 10-4.478 10-10 0-33.672-27.394-61.066-61.066-61.066h-53.568v-34.871c0-5.522-4.477-10-10-10s-10 4.478-10 10v34.871h-24.142v-151.387c7.904 1.631 16.238 1.63 24.142 0v28.25c0 5.522 4.477 10 10 10s10-4.478 10-10v-36.481c6.798-4.392 12.647-10.128 17.153-16.844 8.868 13.219 22.922 22.669 39.224 25.44v39.107c-12.24 4.174-21.072 15.777-21.072 29.412 0 17.133 13.939 31.072 31.072 31.072s31.072-13.939 31.072-31.072c0-13.635-8.832-25.238-21.072-29.412v-39.107c16.302-2.771 30.356-12.221 39.224-25.44 8.857 13.203 22.888 22.646 39.165 25.43v79.25c-12.24 4.174-21.072 15.777-21.072 29.412 0 17.133 13.939 31.072 31.072 31.072s31.072-13.939 31.072-31.072c0-13.635-8.832-25.238-21.072-29.412v-79.25c27.872-4.768 49.161-29.089 49.161-58.302v-7.432c0-.041-.006-.08-.006-.12zm-130.52 267.953h-250.948c4.477-17.826 20.639-31.066 39.835-31.066h171.278c19.196 0 35.358 13.24 39.835 31.066zm-133.937-425.922h17.66l27.757 148.089h-74.059zm96.27 0 135.489 148.089h-69.754l-82.615-148.089zm-39.782 0 82.615 148.089h-73.338l-27.757-148.089zm-105.5 148.089h-72.987l84.382-148.089h17.246zm-30.332-148.089h18.708l-84.382 148.089h-69.815zm-109.028 333.523c-6.105 0-11.072-4.967-11.072-11.072s4.967-11.072 11.072-11.072 11.072 4.967 11.072 11.072-4.967 11.072-11.072 11.072zm0-128.838c-20.732 0-37.753-16.193-39.081-36.595l78.162.001c-1.329 20.401-18.35 36.594-39.081 36.594zm98.388 89.76c-6.105 0-11.072-4.967-11.072-11.072s4.967-11.072 11.072-11.072 11.072 4.967 11.072 11.072-4.967 11.072-11.072 11.072zm.059-89.76h-.118c-20.731 0-37.752-16.192-39.081-36.594l78.28-.001c-1.328 20.401-18.349 36.595-39.081 36.595zm115.273-3.812c-5.29 2.527-11.088 3.791-16.945 3.808-20.305 0-37.76-16.3-39.08-36.593h78.28c-.942 14.478-9.791 26.828-22.255 32.785zm81.562 102.551c-6.105 0-11.072-4.967-11.072-11.072s4.967-11.072 11.072-11.072 11.072 4.967 11.072 11.072-4.966 11.072-11.072 11.072zm.059-98.739h-.118c-20.732 0-37.753-16.193-39.081-36.595l78.28.001c-1.328 20.401-18.349 36.594-39.081 36.594zm98.329 138.872c-6.105 0-11.072-4.967-11.072-11.072s4.967-11.072 11.072-11.072 11.072 4.967 11.072 11.072-4.966 11.072-11.072 11.072zm0-138.872c-20.731 0-37.752-16.192-39.081-36.594l78.162-.001c-1.328 20.402-18.349 36.595-39.081 36.595z"/><path d="m286.39 332.85c-3.05-4.537-9.319-5.779-13.87-2.76-4.546 3.016-5.766 9.333-2.76 13.86 3.012 4.537 9.332 5.772 13.86 2.77 4.539-3.01 5.785-9.351 2.77-13.87z"/></g></g></svg>