<?xml version="1.0"?>
<svg xmlns="http://www.w3.org/2000/svg" width="512" height="512" viewBox="0 0 512 512"><g><path d="M472,256.81V104a8,8,0,0,0-8-8H48a8,8,0,0,0-8,8V256.81A40.05,40.05,0,0,0,8,296V408a8,8,0,0,0,8,8H496a8,8,0,0,0,8-8V296A40.05,40.05,0,0,0,472,256.81ZM56,112H456V256H392V232a40.04,40.04,0,0,0-40-40H160a40.04,40.04,0,0,0-40,40v24H56ZM376,232v24H136V232a24.032,24.032,0,0,1,24-24H352A24.032,24.032,0,0,1,376,232ZM488,400H24V320H488Zm0-96H24v-8a24.032,24.032,0,0,1,24-24H464a24.032,24.032,0,0,1,24,24Z"/><path d="M48,384H88a8,8,0,0,0,0-16H48a8,8,0,0,0,0,16Z"/><path d="M112,384h8a8,8,0,0,0,0-16h-8a8,8,0,0,0,0,16Z"/></g></svg>
